<?xml version="1.0" encoding="UTF-8" standalone="no" ?>
<!DOCTYPE svg PUBLIC "-//W3C//DTD SVG 1.1//EN" "http://www.w3.org/Graphics/SVG/1.1/DTD/svg11.dtd">
<svg xmlns="http://www.w3.org/2000/svg" xmlns:xlink="http://www.w3.org/1999/xlink" version="1.1" width="60" height="60" viewBox="0 0 500 500" xml:space="preserve">
<desc>Created with Fabric.js 4.6.0</desc>
<defs>
</defs>
<g transform="matrix(1.43 0 0 1.43 249.26 249.71)" id="ZFoF0e8wssbAnMzy6Eir2"  >
<path style="stroke: rgb(255,255,255); stroke-width: 2; stroke-dasharray: none; stroke-linecap: butt; stroke-dashoffset: 0; stroke-linejoin: miter; stroke-miterlimit: 4; fill: none; fill-rule: nonzero; opacity: 1;" vector-effect="non-scaling-stroke"  transform=" translate(0, 0)" d="M 0 -160 C 88.32 -160 160 -88.32 160 0 C 160 88.32 88.32 160 0 160 C -88.32 160 -160 88.32 -160 0 C -160 -88.32 -88.32 -160 0 -160 z" stroke-linecap="round" />
</g>
<g transform="matrix(1.43 0 0 1.43 249.26 249.71)" id="jAOpvI78Y1nyBbxZwMFQe"  >
<path style="stroke: rgb(255,255,255); stroke-width: 2; stroke-dasharray: none; stroke-linecap: butt; stroke-dashoffset: 0; stroke-linejoin: miter; stroke-miterlimit: 4; fill: none; fill-rule: nonzero; opacity: 1;" vector-effect="non-scaling-stroke"  transform=" translate(0, 0)" d="M 0 -120 C 66.24 -120 120 -66.24000000000001 120 0 C 120 66.24 66.24000000000001 120 0 120 C -66.24 120 -120 66.24000000000001 -120 0 C -120 -66.24 -66.24000000000001 -120 0 -120 z" stroke-linecap="round" />
</g>
<g transform="matrix(1.43 0 0 1.43 249.26 249.71)" id="9FV-SbfEQvhczA6iRuhDj"  >
<path style="stroke: rgb(255,255,255); stroke-width: 2; stroke-dasharray: none; stroke-linecap: butt; stroke-dashoffset: 0; stroke-linejoin: miter; stroke-miterlimit: 4; fill: none; fill-rule: nonzero; opacity: 1;" vector-effect="non-scaling-stroke"  transform=" translate(0, 0)" d="M 0 -80 C 44.16 -80 80 -44.16 80 0 C 80 44.16 44.16 80 0 80 C -44.16 80 -80 44.16 -80 0 C -80 -44.16 -44.16 -80 0 -80 z" stroke-linecap="round" />
</g>
<g transform="matrix(1.43 0 0 1.43 252.47 100.93)" id="cuSiV9qPM88gqeyeHy_gy"  >
<path style="stroke: rgb(0,0,0); stroke-width: 0; stroke-dasharray: none; stroke-linecap: butt; stroke-dashoffset: 0; stroke-linejoin: miter; stroke-miterlimit: 4; fill: rgb(255,255,255); fill-rule: nonzero; opacity: 1;" vector-effect="non-scaling-stroke"  transform=" translate(0, 0)" d="M -5 -60 L 5 -60 L 5 60 L -5 60 z" stroke-linecap="round" />
</g>
<g transform="matrix(1.24 0.72 -0.72 1.24 328.47 123.76)" id="aOBtFTQ9GUpc7KhdDsowe"  >
<path style="stroke: rgb(0,0,0); stroke-width: 0; stroke-dasharray: none; stroke-linecap: butt; stroke-dashoffset: 0; stroke-linejoin: miter; stroke-miterlimit: 4; fill: rgb(255,255,255); fill-rule: nonzero; opacity: 1;" vector-effect="non-scaling-stroke"  transform=" translate(0, 0)" d="M -5 -60 L 5 -60 L 5 60 L -5 60 z" stroke-linecap="round" />
</g>
<g transform="matrix(1.24 0.72 -0.72 1.24 172.69 373.99)" id="ryZIPsK3KkIwrFXF4VzkI"  >
<path style="stroke: rgb(0,0,0); stroke-width: 0; stroke-dasharray: none; stroke-linecap: butt; stroke-dashoffset: 0; stroke-linejoin: miter; stroke-miterlimit: 4; fill: rgb(255,255,255); fill-rule: nonzero; opacity: 1;" vector-effect="non-scaling-stroke"  transform=" translate(0, 0)" d="M -5 -60 L 5 -60 L 5 60 L -5 60 z" stroke-linecap="round" />
</g>
<g transform="matrix(1.43 0 0 1.43 249.26 249.71)" id="48brV8lGC8BVb0XvgBGGu"  >
<path style="stroke: rgb(255,255,255); stroke-width: 2; stroke-dasharray: none; stroke-linecap: butt; stroke-dashoffset: 0; stroke-linejoin: miter; stroke-miterlimit: 4; fill: none; fill-rule: nonzero; opacity: 1;" vector-effect="non-scaling-stroke"  transform=" translate(0, 0)" d="M 0 -40 C 22.08 -40 40 -22.08 40 0 C 40 22.08 22.08 40 0 40 C -22.08 40 -40 22.08 -40 0 C -40 -22.08 -22.08 -40 0 -40 z" stroke-linecap="round" />
</g>
<g transform="matrix(0.72 1.24 -1.24 0.72 382.14 180.59)" id="Is3XmM9MmD847F5sRhetR"  >
<path style="stroke: rgb(0,0,0); stroke-width: 0; stroke-dasharray: none; stroke-linecap: butt; stroke-dashoffset: 0; stroke-linejoin: miter; stroke-miterlimit: 4; fill: rgb(255,255,255); fill-rule: nonzero; opacity: 1;" vector-effect="non-scaling-stroke"  transform=" translate(0, 0)" d="M -5 -60 L 5 -60 L 5 60 L -5 60 z" stroke-linecap="round" />
</g>
<g transform="matrix(0.72 1.24 -1.24 0.72 120.02 322.44)" id="6sOGbmf0qtMAuj_kAckHy"  >
<path style="stroke: rgb(0,0,0); stroke-width: 0; stroke-dasharray: none; stroke-linecap: butt; stroke-dashoffset: 0; stroke-linejoin: miter; stroke-miterlimit: 4; fill: rgb(255,255,255); fill-rule: nonzero; opacity: 1;" vector-effect="non-scaling-stroke"  transform=" translate(0, 0)" d="M -5 -60 L 5 -60 L 5 60 L -5 60 z" stroke-linecap="round" />
</g>
<g transform="matrix(0 1.43 -1.43 0 399.66 252.26)" id="8dBPzETxusgBeGTjJR08k"  >
<path style="stroke: rgb(0,0,0); stroke-width: 0; stroke-dasharray: none; stroke-linecap: butt; stroke-dashoffset: 0; stroke-linejoin: miter; stroke-miterlimit: 4; fill: rgb(255,255,255); fill-rule: nonzero; opacity: 1;" vector-effect="non-scaling-stroke"  transform=" translate(0, 0)" d="M -5 -60 L 5 -60 L 5 60 L -5 60 z" stroke-linecap="round" />
</g>
<g transform="matrix(0 1.43 -1.43 0 100.34 248.53)" id="uC4kfJmc-7lFHYmt03Okk"  >
<path style="stroke: rgb(0,0,0); stroke-width: 0; stroke-dasharray: none; stroke-linecap: butt; stroke-dashoffset: 0; stroke-linejoin: miter; stroke-miterlimit: 4; fill: rgb(255,255,255); fill-rule: nonzero; opacity: 1;" vector-effect="non-scaling-stroke"  transform=" translate(0, 0)" d="M -5 -60 L 5 -60 L 5 60 L -5 60 z" stroke-linecap="round" />
</g>
<g transform="matrix(-0.72 1.24 -1.24 -0.72 376.78 328.27)" id="S0fN5Ty22qZuAhR5BZMFp"  >
<path style="stroke: rgb(0,0,0); stroke-width: 0; stroke-dasharray: none; stroke-linecap: butt; stroke-dashoffset: 0; stroke-linejoin: miter; stroke-miterlimit: 4; fill: rgb(255,255,255); fill-rule: nonzero; opacity: 1;" vector-effect="non-scaling-stroke"  transform=" translate(0, 0)" d="M -5 -60 L 5 -60 L 5 60 L -5 60 z" stroke-linecap="round" />
</g>
<g transform="matrix(-0.72 1.24 -1.24 -0.72 122.12 170.46)" id="D8nYcUSyblFXCs8OhUBoQ"  >
<path style="stroke: rgb(0,0,0); stroke-width: 0; stroke-dasharray: none; stroke-linecap: butt; stroke-dashoffset: 0; stroke-linejoin: miter; stroke-miterlimit: 4; fill: rgb(255,255,255); fill-rule: nonzero; opacity: 1;" vector-effect="non-scaling-stroke"  transform=" translate(0, 0)" d="M -5 -60 L 5 -60 L 5 60 L -5 60 z" stroke-linecap="round" />
</g>
<g transform="matrix(-1.24 0.72 -0.72 -1.24 322 380.86)" id="QJArx81VRn2Kq5jOCW7Nx"  >
<path style="stroke: rgb(0,0,0); stroke-width: 0; stroke-dasharray: none; stroke-linecap: butt; stroke-dashoffset: 0; stroke-linejoin: miter; stroke-miterlimit: 4; fill: rgb(255,255,255); fill-rule: nonzero; opacity: 1;" vector-effect="non-scaling-stroke"  transform=" translate(0, 0)" d="M -5 -60 L 5 -60 L 5 60 L -5 60 z" stroke-linecap="round" />
</g>
<g transform="matrix(-1.24 0.72 -0.72 -1.24 184.3 123.16)" id="HAYXsUoKVRlHjzRbshHec"  >
<path style="stroke: rgb(0,0,0); stroke-width: 0; stroke-dasharray: none; stroke-linecap: butt; stroke-dashoffset: 0; stroke-linejoin: miter; stroke-miterlimit: 4; fill: rgb(255,255,255); fill-rule: nonzero; opacity: 1;" vector-effect="non-scaling-stroke"  transform=" translate(0, 0)" d="M -5 -60 L 5 -60 L 5 60 L -5 60 z" stroke-linecap="round" />
</g>
<g transform="matrix(1.43 0 0 1.43 249.15 399.07)" id="sairtEcIb5QBdAEG-jS8U"  >
<path style="stroke: rgb(0,0,0); stroke-width: 0; stroke-dasharray: none; stroke-linecap: butt; stroke-dashoffset: 0; stroke-linejoin: miter; stroke-miterlimit: 4; fill: rgb(255,255,255); fill-rule: nonzero; opacity: 1;" vector-effect="non-scaling-stroke"  transform=" translate(0, 0)" d="M -5 -60 L 5 -60 L 5 60 L -5 60 z" stroke-linecap="round" />
</g>
</svg>